<svg width="274" height="24" viewBox="0 0 274 24" fill="none" xmlns="http://www.w3.org/2000/svg">
<path d="M10.3835 9.25568C10.322 9.00473 10.2249 8.78456 10.0923 8.59517C9.95975 8.40104 9.79403 8.23769 9.59517 8.10511C9.40104 7.9678 9.17377 7.866 8.91335 7.79972C8.65767 7.72869 8.37595 7.69318 8.06818 7.69318C7.4053 7.69318 6.83949 7.8518 6.37074 8.16903C5.90672 8.48627 5.55161 8.94318 5.3054 9.53977C5.06392 10.1364 4.94318 10.8561 4.94318 11.6989C4.94318 12.5511 5.05919 13.2803 5.29119 13.8864C5.5232 14.4924 5.86884 14.9564 6.32812 15.2784C6.78741 15.6004 7.35795 15.7614 8.03977 15.7614C8.6411 15.7614 9.14063 15.6738 9.53835 15.4986C9.94081 15.3234 10.2415 15.0748 10.4403 14.7528C10.6392 14.4309 10.7386 14.0521 10.7386 13.6165L11.4205 13.6875H8.09659V10.875H14.5455V12.892C14.5455 14.2178 14.2637 15.3518 13.7003 16.294C13.1416 17.2315 12.3698 17.9512 11.3849 18.4531C10.4048 18.9503 9.2803 19.1989 8.01136 19.1989C6.59564 19.1989 5.35275 18.8982 4.28267 18.2969C3.21259 17.6955 2.37689 16.8385 1.77557 15.7259C1.17898 14.6132 0.880682 13.2898 0.880682 11.7557C0.880682 10.553 1.06297 9.48769 1.42756 8.55966C1.79688 7.63163 2.30824 6.84801 2.96165 6.20881C3.61506 5.56487 4.37027 5.07955 5.22727 4.75284C6.08428 4.4214 7.00284 4.25568 7.98295 4.25568C8.8447 4.25568 9.64489 4.37879 10.3835 4.625C11.1269 4.86648 11.7827 5.21212 12.3509 5.66193C12.9238 6.10701 13.3854 6.63494 13.7358 7.24574C14.0862 7.85653 14.2992 8.52651 14.375 9.25568H10.3835ZM24.7159 19H20.4545L25.2557 4.45455H30.6534L35.4545 19H31.1932L28.0114 8.46023H27.8977L24.7159 19ZM23.9205 13.2614H31.9318V16.2159H23.9205V13.2614ZM41.8555 19V4.45455H45.8043V15.8182H51.685V19H41.8555ZM58.2812 19V4.45455H68.7642V7.63636H62.2301V10.1364H68.2244V13.3182H62.2301V15.8182H68.7358V19H58.2812ZM75.7227 19V4.45455H82.0011C83.0806 4.45455 84.0252 4.65104 84.8349 5.04403C85.6445 5.43703 86.2743 6.00284 86.7241 6.74148C87.1739 7.48011 87.3988 8.36553 87.3988 9.39773C87.3988 10.4394 87.1668 11.3177 86.7028 12.0327C86.2435 12.7476 85.5972 13.2874 84.7638 13.652C83.9353 14.0166 82.967 14.1989 81.859 14.1989H78.109V11.1307H81.0636C81.5276 11.1307 81.9229 11.0739 82.2496 10.9602C82.5811 10.8419 82.8344 10.6548 83.0096 10.3991C83.1895 10.1435 83.2795 9.80966 83.2795 9.39773C83.2795 8.98106 83.1895 8.64252 83.0096 8.3821C82.8344 8.11695 82.5811 7.92282 82.2496 7.79972C81.9229 7.67187 81.5276 7.60795 81.0636 7.60795H79.6715V19H75.7227ZM84.2454 12.3239L87.8817 19H83.592L80.0408 12.3239H84.2454ZM98.0309 4.45455V19H94.082V4.45455H98.0309ZM104.902 19V4.45455H115.385V7.63636H108.851V10.1364H114.846V13.3182H108.851V15.8182H115.357V19H104.902ZM131.328 19V4.45455H137.607C138.686 4.45455 139.631 4.66761 140.44 5.09375C141.25 5.51989 141.88 6.11884 142.33 6.89062C142.779 7.66241 143.004 8.56439 143.004 9.59659C143.004 10.6383 142.772 11.5402 142.308 12.3026C141.849 13.0649 141.203 13.652 140.369 14.0639C139.541 14.4759 138.572 14.6818 137.464 14.6818H133.714V11.6136H136.669C137.133 11.6136 137.528 11.5331 137.855 11.3722C138.187 11.2064 138.44 10.9721 138.615 10.669C138.795 10.366 138.885 10.0085 138.885 9.59659C138.885 9.17992 138.795 8.82481 138.615 8.53125C138.44 8.23295 138.187 8.00568 137.855 7.84943C137.528 7.68845 137.133 7.60795 136.669 7.60795H135.277V19H131.328ZM151.415 19H147.154L151.955 4.45455H157.353L162.154 19H157.892L154.711 8.46023H154.597L151.415 19ZM150.62 13.2614H158.631V16.2159H150.62V13.2614ZM168.555 19V4.45455H174.833C175.913 4.45455 176.857 4.65104 177.667 5.04403C178.477 5.43703 179.106 6.00284 179.556 6.74148C180.006 7.48011 180.231 8.36553 180.231 9.39773C180.231 10.4394 179.999 11.3177 179.535 12.0327C179.076 12.7476 178.429 13.2874 177.596 13.652C176.767 14.0166 175.799 14.1989 174.691 14.1989H170.941V11.1307H173.896C174.36 11.1307 174.755 11.0739 175.082 10.9602C175.413 10.8419 175.666 10.6548 175.842 10.3991C176.022 10.1435 176.112 9.80966 176.112 9.39773C176.112 8.98106 176.022 8.64252 175.842 8.3821C175.666 8.11695 175.413 7.92282 175.082 7.79972C174.755 7.67187 174.36 7.60795 173.896 7.60795H172.504V19H168.555ZM177.077 12.3239L180.714 19H176.424L172.873 12.3239H177.077ZM190.692 19H186.431L191.232 4.45455H196.63L201.431 19H197.17L193.988 8.46023H193.874L190.692 19ZM189.897 13.2614H197.908V16.2159H189.897V13.2614Z" fill="black"/>
<path fill-rule="evenodd" clip-rule="evenodd" d="M207 19L212.808 4H216.541L210.733 19H207Z" fill="#0F0F0F"/>
<path fill-rule="evenodd" clip-rule="evenodd" d="M212.459 19L218.267 4H222L216.192 19H212.459Z" fill="#0F0F0F"/>
<path d="M227.938 19V4.45455H238.42V7.63636H231.886V10.1364H237.881V13.3182H231.886V15.8182H238.392V19H227.938ZM245.379 19V4.45455H249.328V15.8182H255.208V19H245.379ZM261.805 19V4.45455H272.288V7.63636H265.754V10.1364H271.748V13.3182H265.754V15.8182H272.259V19H261.805Z" fill="black"/>
</svg>
